# xmcd
#
# Track frame offsets:
# 150
# 12165
# 26000
# 38127
# 52722
# 65412
# 82442
# 93620
# 111222
# 127550
# 141442
# 158795
# 175337
# 188980
# 201207
# 213727
# 227937
# 246445
# 261025
# 271965
# 289507
# 299475
# 315615
# 331150
# 341105
#
# Disc length: 4744 seconds
#
# Revision: 1
# Processed by: cddbd v1.5.2PL0 Copyright (c) Steve Scherf et al.
# Submitted via: Axialis_AX_CDPlayer 2.6
#
DISCID=7e128619
DTITLE=David Allan Coe - Unchained - Son Of The South plus (w/ complete trac
DTITLE=klist)
DYEAR=2005
DGENRE=Country
TTITLE0=I'm Gonna Hurt Her On The Radio
TTITLE1=Angels In Red
TTITLE2=He Has To Pay (For What I Get For Free)
TTITLE3=Ain't Worth The Powder
TTITLE4=Would They Love Me Down In Shreveport
TTITLE5=Unchained Melody
TTITLE6=Snowblind Friend
TTITLE7=Southern Man
TTITLE8=Even After Forever
TTITLE9=The Fiery Death Of Willie Bodine
TTITLE10=Love Is A Never Ending War
TTITLE11=Storms Never Last (& Willie Nelson, Jaylon Hennigs and Jessi Colter)
TTITLE12=Gemini Girl
TTITLE13=To Help You Love Again
TTITLE14=Cold Turkey
TTITLE15=A Country Boy (Who Rolled The Rock Away)
TTITLE16=Couldn't Do Nothin' Right (& Karen Brooks)
TTITLE17=I've Already Cheated On You (& Willie Nelson)
TTITLE18=I Hate Love (& Willie Nelson and Waylon Jennings)
TTITLE19=Son Of The South (& DIckey Betts)
TTITLE20=Shrimp Boat Annie
TTITLE21=Ride 'em Cowboy
TTITLE22=Yetserday's Wine
TTITLE23=Keep Those Big Wheels Hummin'
TTITLE24=Memphis In My blood
EXTD=
EXTT0=
EXTT1=
EXTT2=
EXTT3=
EXTT4=
EXTT5=
EXTT6=
EXTT7=
EXTT8=
EXTT9=
EXTT10=
EXTT11=
EXTT12=
EXTT13=
EXTT14=
EXTT15=
EXTT16=
EXTT17=
EXTT18=
EXTT19=
EXTT20=
EXTT21=
EXTT22=
EXTT23=
EXTT24=
PLAYORDER=
